<svg width="300" height="300" viewBox="0 0 300 300" xmlns="http://www.w3.org/2000/svg">
  <rect width="300" height="300" fill="#FF6347"/>
  <path d="M100 80 L100 120 L80 140 L80 220 L220 220 L220 140 L200 120 L200 80 Q200 60 180 60 L120 60 Q100 60 100 80 Z" fill="#FF4500"/>
  <rect x="120" y="70" width="60" height="20" fill="#8B0000"/>
  <circle cx="130" cy="100" r="8" fill="#FFD700"/>
  <circle cx="150" cy="100" r="8" fill="#FFD700"/>
  <circle cx="170" cy="100" r="8" fill="#FFD700"/>
  <path d="M110 130 Q150 120 190 130" stroke="#8B0000" stroke-width="3" fill="none"/>
  <path d="M110 150 Q150 140 190 150" stroke="#8B0000" stroke-width="3" fill="none"/>
  <path d="M110 170 Q150 160 190 170" stroke="#8B0000" stroke-width="3" fill="none"/>
  <rect x="90" y="120" width="30" height="80" fill="#FF4500"/>
  <rect x="180" y="120" width="30" height="80" fill="#FF4500"/>
  <text x="150" y="270" text-anchor="middle" fill="white" font-family="Arial" font-size="16">Traditional Clothing</text>
</svg>